<svg version="1.1" id="Layer_1" xmlns="http://www.w3.org/2000/svg" xmlns:xlink="http://www.w3.org/1999/xlink" x="0px" y="0px"
	 width="100%" viewBox="0 0 634 356" enable-background="new 0 0 634 356" xml:space="preserve">
<path fill="#FCFCFC" opacity="1.000000" stroke="none" 
	d="
M363.000000,357.000000 
	C242.000031,357.000000 121.500061,357.000000 1.000065,357.000000 
	C1.000043,238.333389 1.000043,119.666779 1.000022,1.000128 
	C212.333237,1.000086 423.666473,1.000086 634.999756,1.000043 
	C634.999878,119.666534 634.999878,238.333069 634.999939,356.999817 
	C544.500000,357.000000 454.000000,357.000000 363.000000,357.000000 
M27.846209,310.020050 
	C33.617924,309.016174 39.342384,307.967712 44.988041,310.876312 
	C46.178268,311.489502 47.941666,311.001740 49.440960,311.001801 
	C127.251343,311.004059 205.061722,311.004211 282.872101,311.004272 
	C283.871796,311.004272 284.873901,311.044128 285.870850,310.990662 
	C294.044647,310.552734 300.966553,303.430389 301.005219,295.355865 
	C301.045105,287.025177 301.028717,278.694092 301.009918,270.363251 
	C300.990448,261.729156 294.303741,255.005371 285.538116,255.002579 
	C205.894943,254.977341 126.251762,254.978989 46.608593,254.999771 
	C37.785992,255.002075 30.053728,262.750549 29.998886,271.559174 
	C29.945982,280.056366 30.307327,288.571472 29.850031,297.044373 
	C29.614912,301.400696 27.992218,305.682159 26.720081,310.105560 
	C26.814329,310.071594 26.908577,310.037628 27.846209,310.020050 
M27.832230,167.018524 
	C33.649521,165.529846 39.359444,165.172333 45.024895,167.882965 
	C46.249237,168.468750 47.982857,168.000259 49.481895,168.000290 
	C127.275047,168.001816 205.068207,168.001511 282.861359,168.001251 
	C283.694275,168.001251 284.527893,168.022141 285.359955,167.994965 
	C294.041321,167.711456 300.989288,160.568192 301.011292,151.872345 
	C301.031952,143.709946 301.027802,135.547424 301.012390,127.385010 
	C300.995300,118.354164 294.802582,112.006599 285.721985,112.002861 
	C205.929855,111.969986 126.137718,111.970818 46.345608,112.002480 
	C37.220154,112.006104 30.059055,119.355316 30.005424,128.579391 
	C29.956032,137.074722 30.314436,145.588013 29.856272,154.058929 
	C29.620884,158.410995 27.995626,162.687912 26.723528,167.105743 
	C26.816105,167.071106 26.908682,167.036469 27.832230,167.018524 
M610.984009,240.575851 
	C611.207153,240.516617 611.430237,240.457367 611.653381,240.398117 
	C611.475220,240.229248 611.297119,240.060394 610.991699,239.147125 
	C610.226929,236.801651 608.901367,234.480881 608.796692,232.106308 
	C608.393921,222.967636 607.734558,213.764694 608.395264,204.674698 
	C609.147522,194.324860 600.755920,184.465851 588.255920,184.533783 
	C510.979156,184.953735 433.698975,184.744415 356.419922,184.747787 
	C354.754944,184.747864 353.083405,184.704315 351.426056,184.829010 
	C343.269592,185.442627 336.876495,192.161194 336.793488,200.321518 
	C336.710480,208.481628 336.809326,216.643433 336.759369,224.804062 
	C336.717865,231.577103 340.047913,236.372330 345.966736,238.957687 
	C349.198303,240.369232 353.027435,240.980637 356.588562,240.986267 
	C433.367798,241.107452 510.147186,241.093292 586.926575,241.095367 
	C588.923767,241.095428 591.246826,241.627701 592.859924,240.810425 
	C598.832947,237.784302 604.735474,238.719620 610.984009,240.575851 
M448.500000,97.250763 
	C493.979004,97.268913 539.459778,97.085236 584.935425,97.483521 
	C593.544678,97.558914 602.001099,91.848572 610.676697,96.862862 
	C610.813049,96.941643 611.181458,96.619041 610.555664,96.944550 
	C609.747375,92.279305 608.553528,87.960060 608.341675,83.593155 
	C607.978699,76.113922 607.661133,68.551712 608.355835,61.120750 
	C609.413086,49.810280 599.815063,40.657021 587.917480,40.722176 
	C510.788696,41.144581 433.656494,40.938663 356.525421,40.939968 
	C355.026184,40.939991 353.522675,40.886620 352.028381,40.977119 
	C343.427948,41.498016 336.850159,48.393642 336.792542,57.013885 
	C336.739105,65.009834 336.739685,73.006699 336.792480,81.002655 
	C336.838104,87.914131 340.701294,93.736809 347.237000,95.880318 
	C350.322845,96.892380 353.761322,97.182220 357.041931,97.192581 
	C387.194366,97.287872 417.347260,97.250084 448.500000,97.250763 
z"/>
<path fill="#3DA6F6" opacity="1.000000" stroke="none" 
	d="
M610.742126,240.265778 
	C604.735474,238.719620 598.832947,237.784302 592.859924,240.810425 
	C591.246826,241.627701 588.923767,241.095428 586.926575,241.095367 
	C510.147186,241.093292 433.367798,241.107452 356.588562,240.986267 
	C353.027435,240.980637 349.198303,240.369232 345.966736,238.957687 
	C340.047913,236.372330 336.717865,231.577103 336.759369,224.804062 
	C336.809326,216.643433 336.710480,208.481628 336.793488,200.321518 
	C336.876495,192.161194 343.269592,185.442627 351.426056,184.829010 
	C353.083405,184.704315 354.754944,184.747864 356.419922,184.747787 
	C433.698975,184.744415 510.979156,184.953735 588.255920,184.533783 
	C600.755920,184.465851 609.147522,194.324860 608.395264,204.674698 
	C607.734558,213.764694 608.393921,222.967636 608.796692,232.106308 
	C608.901367,234.480881 610.226929,236.801651 610.960327,239.612061 
	C610.928894,240.077011 610.742126,240.265778 610.742126,240.265778 
z"/>
<path fill="#E4E3E8" opacity="1.000000" stroke="none" 
	d="
M26.998455,166.998779 
	C27.995626,162.687912 29.620884,158.410995 29.856272,154.058929 
	C30.314436,145.588013 29.956032,137.074722 30.005424,128.579391 
	C30.059055,119.355316 37.220154,112.006104 46.345608,112.002480 
	C126.137718,111.970818 205.929855,111.969986 285.721985,112.002861 
	C294.802582,112.006599 300.995300,118.354164 301.012390,127.385010 
	C301.027802,135.547424 301.031952,143.709946 301.011292,151.872345 
	C300.989288,160.568192 294.041321,167.711456 285.359955,167.994965 
	C284.527893,168.022141 283.694275,168.001251 282.861359,168.001251 
	C205.068207,168.001511 127.275047,168.001816 49.481895,168.000290 
	C47.982857,168.000259 46.249237,168.468750 45.024895,167.882965 
	C39.359444,165.172333 33.649521,165.529846 27.416115,167.009262 
	C27.000000,167.000000 26.998453,166.998779 26.998455,166.998779 
z"/>
<path fill="#3DA6F6" opacity="1.000000" stroke="none" 
	d="
M448.000000,97.250916 
	C417.347260,97.250084 387.194366,97.287872 357.041931,97.192581 
	C353.761322,97.182220 350.322845,96.892380 347.237000,95.880318 
	C340.701294,93.736809 336.838104,87.914131 336.792480,81.002655 
	C336.739685,73.006699 336.739105,65.009834 336.792542,57.013885 
	C336.850159,48.393642 343.427948,41.498016 352.028381,40.977119 
	C353.522675,40.886620 355.026184,40.939991 356.525421,40.939968 
	C433.656494,40.938663 510.788696,41.144581 587.917480,40.722176 
	C599.815063,40.657021 609.413086,49.810280 608.355835,61.120750 
	C607.661133,68.551712 607.978699,76.113922 608.341675,83.593155 
	C608.553528,87.960060 609.747375,92.279305 610.555664,96.944550 
	C611.181458,96.619041 610.813049,96.941643 610.676697,96.862862 
	C602.001099,91.848572 593.544678,97.558914 584.935425,97.483521 
	C539.459778,97.085236 493.979004,97.268913 448.000000,97.250916 
z"/>
<path fill="#E4E3E8" opacity="1.000000" stroke="none" 
	d="
M26.996557,309.997437 
	C27.992218,305.682159 29.614912,301.400696 29.850031,297.044373 
	C30.307327,288.571472 29.945982,280.056366 29.998886,271.559174 
	C30.053728,262.750549 37.785992,255.002075 46.608593,254.999771 
	C126.251762,254.978989 205.894943,254.977341 285.538116,255.002579 
	C294.303741,255.005371 300.990448,261.729156 301.009918,270.363251 
	C301.028717,278.694092 301.045105,287.025177 301.005219,295.355865 
	C300.966553,303.430389 294.044647,310.552734 285.870850,310.990662 
	C284.873901,311.044128 283.871796,311.004272 282.872101,311.004272 
	C205.061722,311.004211 127.251343,311.004059 49.440960,311.001801 
	C47.941666,311.001740 46.178268,311.489502 44.988041,310.876312 
	C39.342384,307.967712 33.617924,309.016174 27.423103,310.010010 
	C27.000000,310.000000 26.996559,309.997437 26.996557,309.997437 
z"/>
<path fill="#E4E3E8" opacity="1.000000" stroke="none" 
	d="
M27.000629,167.000916 
	C26.908682,167.036469 26.816105,167.071106 26.860991,167.052261 
	C26.998453,166.998779 27.000000,167.000000 27.000629,167.000916 
z"/>
<path fill="#3DA6F6" opacity="1.000000" stroke="none" 
	d="
M611.023926,239.984283 
	C611.297119,240.060394 611.475220,240.229248 611.653381,240.398117 
	C611.430237,240.457367 611.207153,240.516617 610.863037,240.420807 
	C610.742126,240.265778 610.928894,240.077011 611.023926,239.984283 
z"/>
<path fill="#E4E3E8" opacity="1.000000" stroke="none" 
	d="
M27.001411,310.001831 
	C26.908577,310.037628 26.814329,310.071594 26.858320,310.051514 
	C26.996559,309.997437 27.000000,310.000000 27.001411,310.001831 
z"/>
</svg>